<?xml version="1.0" encoding="utf-8"?>
<!-- Generator: Adobe Illustrator 18.1.1, SVG Export Plug-In . SVG Version: 6.00 Build 0)  -->
<svg version="1.1" xmlns="http://www.w3.org/2000/svg" xmlns:xlink="http://www.w3.org/1999/xlink" x="0px" y="0px"
	 viewBox="0 0 40 40" enable-background="new 0 0 40 40" xml:space="preserve">
<g id="Layer_1">
	<g>
		<g>
			
				<polyline fill="none" stroke="#000000" stroke-width="2" stroke-linecap="round" stroke-linejoin="round" stroke-miterlimit="10" points="
				3.412,22.191 1.222,19.999 3.412,17.809 			"/>
		</g>
		
			<line fill="none" stroke="#000000" stroke-width="2" stroke-linecap="round" stroke-linejoin="round" stroke-miterlimit="10" x1="6.546" y1="28.574" x2="6.546" y2="11.426"/>
		
			<line fill="none" stroke="#000000" stroke-width="2" stroke-linecap="round" stroke-linejoin="round" stroke-miterlimit="10" x1="33.584" y1="11.426" x2="33.584" y2="28.574"/>
		
			<rect x="9.243" y="8.744" fill="none" stroke="#000000" stroke-width="2" stroke-linecap="round" stroke-linejoin="round" stroke-miterlimit="10" width="21.643" height="22.512"/>
		<path fill="none" stroke="#000000" stroke-width="2" stroke-linecap="round" stroke-linejoin="round" stroke-miterlimit="10" d="
			M30.887,28.004l-5.376-5.848c-0.988-0.988-2.531-1.062-3.429-0.166c-0.897,0.896-2.439,0.822-3.427-0.168l-2.445-2.445
			c-0.99-0.989-2.137-0.989-3.125-0.002l-3.628,3.631"/>
		<path fill="none" stroke="#000000" stroke-width="2" stroke-linecap="round" stroke-linejoin="round" stroke-miterlimit="10" d="
			M21.503,21.111c-1.124-1.35-0.938-3.357,0.414-4.477c1.344-1.118,3.353-0.936,4.476,0.414c1.121,1.351,0.933,3.356-0.416,4.479"/>
		
			<polyline fill="none" stroke="#000000" stroke-width="2" stroke-linecap="round" stroke-linejoin="round" stroke-miterlimit="10" points="
			36.588,22.191 38.778,19.999 36.588,17.809 		"/>
	</g>
</g>
<g id="labels" display="none">
</g>
</svg>
